# xmcd
#
# Track frame offsets:
#	150
#	18058
#	35424
#	48177
#	67295
#	82547
#	91767
#	107694
#	125182
#	141702
#	159442
#	180249
#	192468
#	213735
#	222416
#	234713
#	254266
#	275625
#	286683
#	309944
#	326882
#
# Disc length: 4585 seconds
#
# Revision: 0
# Processed by: cddbd v1.5.2PL0 Copyright (c) Steve Scherf et al.
# Submitted via: EasyCDDAExtractor 12.0.1.1
#
DISCID=3411e715
DTITLE=Various Artist - Ultimate Slow Jams CD2 
DYEAR=1900
DGENRE=R&B
TTITLE0=Mary J Blige - Take Me As I Am
TTITLE1=Letoya - Obvious
TTITLE2=Omarion - Been Wit A Star
TTITLE3=Donell Jones - Can't Wait
TTITLE4=Marques Houston - Miss Being Your Man
TTITLE5=Mya - Ridin
TTITLE6=Heather Heathley - Losing You
TTITLE7=Avant - Director
TTITLE8=Cassie - Don't Go Too Slow
TTITLE9=Tyrese - I Ain't Tryna
TTITLE10=Tamia - Last First Kiss
TTITLE11=Ruben Studdard - Change Me
TTITLE12=Chris Brown - Say Goodbye
TTITLE13=Beyonce - Listen
TTITLE14=Ne Yo - Time
TTITLE15=Rihanna - A Million Miles Away
TTITLE16=Bobby Valentino - Turn The Page
TTITLE17=Lyfe Jennings - S.E.X.
TTITLE18=Cheri Dens - Point Of No Return
TTITLE19=Beyonce - Bonus Track
TTITLE20=Beyonce - Irreplaceable
EXTD=
EXTT0=
EXTT1=
EXTT2=
EXTT3=
EXTT4=
EXTT5=
EXTT6=
EXTT7=
EXTT8=
EXTT9=
EXTT10=
EXTT11=
EXTT12=
EXTT13=
EXTT14=
EXTT15=
EXTT16=
EXTT17=
EXTT18=
EXTT19=
EXTT20=
PLAYORDER=
